# xmcd CD database file
#
# Track frame offsets:
#	150
#	12513
#	39820
#	78620
#	115071
#	141775
#	167416
#	188409
#	210678
#
# Disc length: 3169 seconds
#
# Revision: 0
# Processed by: cddbd v1.5PL3 Copyright (c) Steve Scherf et al.
# Submitted via: CDex 1.51
#
DISCID=690c5f09
DTITLE=Mike Metheny - KC Potpourri
DYEAR=2003
DGENRE=Jazz
TTITLE0=The Flintsones Theme
TTITLE1=Always and Forever
TTITLE2=Two Degrees East, Three Degrees West
TTITLE3=Tell me Now
TTITLE4=How Insensitive
TTITLE5=Are You Real?
TTITLE6=Darn That Dream
TTITLE7=Hey Man!
TTITLE8=We'll Be Together Again
EXTD=YEAR: 2003
EXTT0=
EXTT1=
EXTT2=
EXTT3=
EXTT4=
EXTT5=
EXTT6=
EXTT7=
EXTT8=
PLAYORDER=
